<svg width="1280" height="720" xmlns="http://www.w3.org/2000/svg" xmlns:xlink="http://www.w3.org/1999/xlink" overflow="hidden"><g><rect x="0" y="0" width="1280" height="720" fill="#FFFFFF"/><text fill="#222222" font-family="Arial,Arial_MSFontService,sans-serif" font-weight="700" font-size="37" transform="translate(57.6 70)">ROS 2 System Architecture</text><text fill="#666666" font-family="Arial,Arial_MSFontService,sans-serif" font-weight="400" font-size="19" transform="translate(57.6 105)">Three layers connected by ROS 2 topics</text><path d="M58.5001 146.053C58.5001 139.672 63.6724 134.5 70.0529 134.5L1207.95 134.5C1214.33 134.5 1219.5 139.672 1219.5 146.053L1219.5 329.947C1219.5 336.328 1214.33 341.5 1207.95 341.5L70.0529 341.5C63.6724 341.5 58.5001 336.328 58.5001 329.947Z" stroke="#534AB7" stroke-width="1.33333" stroke-linejoin="round" stroke-miterlimit="10" fill="#EEEDFE" fill-rule="evenodd"/><text fill="#534AB7" font-family="Arial,Arial_MSFontService,sans-serif" font-weight="700" font-size="21" transform="translate(91.2 173)">PERCEPTION (Python)</text><path d="M82.5001 200.158C82.5001 195.928 85.9284 192.5 90.1574 192.5L1187.84 192.5C1192.07 192.5 1195.5 195.928 1195.5 200.158L1195.5 251.843C1195.5 256.072 1192.07 259.5 1187.84 259.5L90.1574 259.5C85.9284 259.5 82.5001 256.072 82.5001 251.843Z" stroke="#534AB7" stroke-width="1.33333" stroke-linejoin="round" stroke-miterlimit="10" fill="#EEEDFE" fill-rule="evenodd"/><text fill="#534AB7" font-family="Arial,Arial_MSFontService,sans-serif" font-weight="700" font-size="19" transform="translate(100.8 215)">vlm_planner</text><text fill="#534AB7" font-family="Arial,Arial_MSFontService,sans-serif" font-weight="400" font-size="15" transform="translate(100.8 236)">RGB</text><text fill="#534AB7" font-family="Arial,Arial_MSFontService,sans-serif" font-weight="400" font-size="15" transform="translate(132.633 236)">-</text><text fill="#534AB7" font-family="Arial,Arial_MSFontService,sans-serif" font-weight="400" font-size="15" transform="translate(137.467 236)">D → lane centerline → /vlm_path_odom (Path</text><text fill="#534AB7" font-family="Arial,Arial_MSFontService,sans-serif" font-weight="400" font-size="15" transform="translate(436.3 236)">)</text><text fill="#534AB7" font-family="Arial,Arial_MSFontService,sans-serif" font-weight="400" font-size="15" transform="translate(100.8 256)">maneuver FSM → /maneuver/state, /maneuver/target_</text><text fill="#534AB7" font-family="Arial,Arial_MSFontService,sans-serif" font-weight="400" font-size="15" transform="translate(455.133 256)">speed</text><path d="M82.5001 277.1C82.5001 272.903 85.9028 269.5 90.1002 269.5L1187.9 269.5C1192.1 269.5 1195.5 272.903 1195.5 277.1L1195.5 318.9C1195.5 323.097 1192.1 326.5 1187.9 326.5L90.1002 326.5C85.9028 326.5 82.5001 323.097 82.5001 318.9Z" stroke="#534AB7" stroke-width="1.33333" stroke-linejoin="round" stroke-miterlimit="10" fill="#EEEDFE" fill-rule="evenodd"/><text fill="#534AB7" font-family="Arial,Arial_MSFontService,sans-serif" font-weight="700" font-size="19" transform="translate(100.8 292)">vlm_sign</text><text fill="#534AB7" font-family="Arial,Arial_MSFontService,sans-serif" font-weight="400" font-size="15" transform="translate(100.8 311)">RGB → Qwen2.5</text><text fill="#534AB7" font-family="Arial,Arial_MSFontService,sans-serif" font-weight="400" font-size="15" transform="translate(213.967 311)">-</text><text fill="#534AB7" font-family="Arial,Arial_MSFontService,sans-serif" font-weight="400" font-size="15" transform="translate(218.8 311)">VL sign label → /vlm/sign (String</text><text fill="#534AB7" font-family="Arial,Arial_MSFontService,sans-serif" font-weight="400" font-size="15" transform="translate(430.633 311)">)</text><text fill="#555555" font-family="Arial,Arial_MSFontService,sans-serif" font-style="italic" font-weight="400" font-size="15" transform="translate(681.6 363)">nav_msgs/Path +</text><text fill="#555555" font-family="Arial,Arial_MSFontService,sans-serif" font-style="italic" font-weight="400" font-size="15" transform="translate(799.1 363)">speed</text><text fill="#555555" font-family="Arial,Arial_MSFontService,sans-serif" font-style="italic" font-weight="400" font-size="15" transform="translate(843.1 363)">setpoint</text><path d="M639 341 639 387.333 637 387.333 637 341ZM642 386 638 394 634 386Z" fill="#444444"/><path d="M58.5001 410.083C58.5001 403.686 63.6861 398.5 70.0834 398.5L1207.92 398.5C1214.31 398.5 1219.5 403.686 1219.5 410.083L1219.5 497.917C1219.5 504.314 1214.31 509.5 1207.92 509.5L70.0834 509.5C63.6861 509.5 58.5001 504.314 58.5001 497.917Z" stroke="#0F6E56" stroke-width="1.33333" stroke-linejoin="round" stroke-miterlimit="10" fill="#E1F5EE" fill-rule="evenodd"/><text fill="#0F6E56" font-family="Arial,Arial_MSFontService,sans-serif" font-weight="700" font-size="21" transform="translate(91.2 432)">CONTROL (C++)</text><path d="M82.5001 452.086C82.5001 447.896 85.8962 444.5 90.0856 444.5L1187.91 444.5C1192.1 444.5 1195.5 447.896 1195.5 452.086L1195.5 491.914C1195.5 496.104 1192.1 499.5 1187.91 499.5L90.0856 499.5C85.8962 499.5 82.5001 496.104 82.5001 491.914Z" stroke="#0F6E56" stroke-width="1.33333" stroke-linejoin="round" stroke-miterlimit="10" fill="#E1F5EE" fill-rule="evenodd"/><text fill="#0F6E56" font-family="Arial,Arial_MSFontService,sans-serif" font-weight="700" font-size="19" transform="translate(100.8 464)">mpc</text><text fill="#0F6E56" font-family="Arial,Arial_MSFontService,sans-serif" font-weight="700" font-size="19" transform="translate(139.133 464)">_</text><text fill="#0F6E56" font-family="Arial,Arial_MSFontService,sans-serif" font-weight="700" font-size="19" transform="translate(149.467 464)">tracker</text><text fill="#0F6E56" font-family="Arial,Arial_MSFontService,sans-serif" font-weight="400" font-size="15" transform="translate(100.8 483)">OSQP QP over [e_lat, e_head, v] → /cmd_vel (Twist</text><text fill="#0F6E56" font-family="Arial,Arial_MSFontService,sans-serif" font-weight="400" font-size="15" transform="translate(441.467 483)">)</text><text fill="#555555" font-family="Arial,Arial_MSFontService,sans-serif" font-style="italic" font-weight="400" font-size="15" transform="translate(681.6 559)">geometry_msgs/Twist</text><path d="M639 514 639 559.333 637 559.333 637 514ZM642 558 638 566 634 558Z" fill="#444444"/><path d="M58.5001 583.083C58.5001 576.686 63.6861 571.5 70.0834 571.5L1207.92 571.5C1214.31 571.5 1219.5 576.686 1219.5 583.083L1219.5 670.917C1219.5 677.314 1214.31 682.5 1207.92 682.5L70.0834 682.5C63.6861 682.5 58.5001 677.314 58.5001 670.917Z" stroke="#993C1D" stroke-width="1.33333" stroke-linejoin="round" stroke-miterlimit="10" fill="#FAECE7" fill-rule="evenodd"/><text fill="#993C1D" font-family="Arial,Arial_MSFontService,sans-serif" font-weight="700" font-size="21" transform="translate(91.2 605)">SIMULATION (Gazebo Fortress)</text><path d="M82.5001 624.224C82.5001 619.958 85.9583 616.5 90.2243 616.5L1187.78 616.5C1192.04 616.5 1195.5 619.958 1195.5 624.224L1195.5 664.776C1195.5 669.042 1192.04 672.5 1187.78 672.5L90.2243 672.5C85.9583 672.5 82.5001 669.042 82.5001 664.776Z" stroke="#993C1D" stroke-width="1.33333" stroke-linejoin="round" stroke-miterlimit="10" fill="#FAECE7" fill-rule="evenodd"/><text fill="#993C1D" font-family="Arial,Arial_MSFontService,sans-serif" font-weight="400" font-size="15" transform="translate(100.8 633)">Ackermann physics · RGB</text><text fill="#993C1D" font-family="Arial,Arial_MSFontService,sans-serif" font-weight="400" font-size="15" transform="translate(272.633 633)">-</text><text fill="#993C1D" font-family="Arial,Arial_MSFontService,sans-serif" font-weight="400" font-size="15" transform="translate(277.467 633)">D camera · IMU · ros_gz</text><text fill="#993C1D" font-family="Arial,Arial_MSFontService,sans-serif" font-weight="400" font-size="15" transform="translate(441.467 633)">bridge</text></g></svg>