<svg xmlns="http://www.w3.org/2000/svg" width="720" height="405" viewBox="0 0 720 405">
  <rect width="720" height="405" fill="#111827" rx="10"/>
  <rect x="10" y="10" width="700" height="385" fill="none" stroke="#64748b" stroke-width="3" stroke-dasharray="14 10" rx="10"/>
  <!-- rviz-style grid -->
  <g stroke="#1f2937" stroke-width="2">
    <line x1="60" y1="240" x2="660" y2="240"/><line x1="60" y1="285" x2="660" y2="285"/><line x1="60" y1="330" x2="660" y2="330"/>
    <line x1="130" y1="220" x2="130" y2="350"/><line x1="240" y1="220" x2="240" y2="350"/><line x1="350" y1="220" x2="350" y2="350"/>
    <line x1="460" y1="220" x2="460" y2="350"/><line x1="570" y1="220" x2="570" y2="350"/>
  </g>
  <!-- planned path -->
  <path d="M 110 340 C 250 260, 430 330, 610 250" fill="none" stroke="#22c55e" stroke-width="5" stroke-linecap="round"/>
  <path d="M 110 340 C 260 280, 420 315, 610 260" fill="none" stroke="#38bdf8" stroke-width="3" stroke-dasharray="10 8" stroke-linecap="round"/>
  <text x="360" y="120" text-anchor="middle" font-family="Segoe UI, Ubuntu, sans-serif" font-size="30" font-weight="600" fill="#e2e8f0">RViz — paths, TF and FPV camera overlay</text>
  <text x="360" y="158" text-anchor="middle" font-family="Segoe UI, Ubuntu, sans-serif" font-size="19" fill="#94a3b8">screenshot placeholder — replace with the real image</text>
</svg>
